<svg width="21" height="14" viewBox="0 0 21 14" fill="none" xmlns="http://www.w3.org/2000/svg">
<path d="M13.625 7.125C13.625 7.9538 13.2958 8.74866 12.7097 9.33471C12.1237 9.92076 11.3288 10.25 10.5 10.25C9.6712 10.25 8.87634 9.92076 8.29029 9.33471C7.70424 8.74866 7.375 7.9538 7.375 7.125C7.375 6.2962 7.70424 5.50134 8.29029 4.91529C8.87634 4.32924 9.6712 4 10.5 4C11.3288 4 12.1237 4.32924 12.7097 4.91529C13.2958 5.50134 13.625 6.2962 13.625 7.125Z" fill="#4F4F4F"/>
<path d="M0.5 7.125C0.5 7.125 4.25 0.25 10.5 0.25C16.75 0.25 20.5 7.125 20.5 7.125C20.5 7.125 16.75 14 10.5 14C4.25 14 0.5 7.125 0.5 7.125ZM10.5 11.5C11.6603 11.5 12.7731 11.0391 13.5936 10.2186C14.4141 9.39812 14.875 8.28532 14.875 7.125C14.875 5.96468 14.4141 4.85188 13.5936 4.03141C12.7731 3.21094 11.6603 2.75 10.5 2.75C9.33968 2.75 8.22688 3.21094 7.40641 4.03141C6.58594 4.85188 6.125 5.96468 6.125 7.125C6.125 8.28532 6.58594 9.39812 7.40641 10.2186C8.22688 11.0391 9.33968 11.5 10.5 11.5Z" fill="#4F4F4F"/>
</svg>
