<svg width="116" height="20" viewBox="0 0 116 20" fill="none" xmlns="http://www.w3.org/2000/svg">
<path d="M15.496 6H11.908C11.7867 4.11067 10.4867 3.166 8.008 3.166C7.02 3.166 6.23133 3.36533 5.642 3.764C5.07 4.16267 4.784 4.7 4.784 5.376C4.784 6.03467 5.02667 6.52867 5.512 6.858C5.99733 7.18733 6.93333 7.482 8.32 7.742L11.232 8.288C12.948 8.61733 14.196 9.18067 14.976 9.978C15.756 10.7753 16.146 11.902 16.146 13.358C16.146 15.3513 15.3833 16.868 13.858 17.908C12.5407 18.8267 10.764 19.286 8.528 19.286C5.98 19.286 4.03867 18.6967 2.704 17.518C1.54267 16.4953 0.91 15.074 0.806 13.254H4.524C4.66267 15.23 6.058 16.218 8.71 16.218C9.88867 16.218 10.8073 16.01 11.466 15.594C12.142 15.1607 12.48 14.5713 12.48 13.826C12.48 13.098 12.2113 12.5347 11.674 12.136C11.154 11.7373 10.2527 11.4167 8.97 11.174L6.37 10.68C4.48067 10.3333 3.12867 9.78733 2.314 9.042C1.51667 8.27933 1.118 7.18733 1.118 5.766C1.118 3.842 1.82 2.386 3.224 1.398C4.43733 0.531332 6.084 0.0979985 8.164 0.0979985C10.6773 0.0979985 12.5667 0.669999 13.832 1.814C14.924 2.81933 15.4787 4.21467 15.496 6ZM30.6351 13.046H21.3791C21.4311 14.1553 21.6044 14.944 21.8991 15.412C22.4018 16.1747 23.1904 16.556 24.2651 16.556C25.5998 16.556 26.4924 16.0013 26.9431 14.892H30.4791C30.0804 16.244 29.3004 17.3187 28.1391 18.116C26.9951 18.896 25.6518 19.286 24.1091 19.286C22.0118 19.286 20.3998 18.584 19.2731 17.18C18.2851 15.9493 17.7911 14.3287 17.7911 12.318C17.7911 9.874 18.4324 7.98467 19.7151 6.65C20.8418 5.506 22.3238 4.934 24.1611 4.934C25.5651 4.934 26.7958 5.28067 27.8531 5.974C28.9104 6.66733 29.6644 7.638 30.1151 8.886C30.4791 9.85667 30.6611 11.0267 30.6611 12.396C30.6611 12.5693 30.6524 12.786 30.6351 13.046ZM26.9171 10.68C26.7438 8.66933 25.8164 7.664 24.1351 7.664C22.5578 7.664 21.6564 8.66933 21.4311 10.68H26.9171ZM39.2565 4.934C41.5272 4.934 43.2692 5.662 44.4825 7.118C45.5399 8.366 46.0685 10.03 46.0685 12.11C46.0685 14.502 45.3839 16.3393 44.0145 17.622C42.8185 18.7313 41.2325 19.286 39.2565 19.286C36.9859 19.286 35.2439 18.5667 34.0305 17.128C32.9732 15.8627 32.4445 14.19 32.4445 12.11C32.4445 9.73533 33.1292 7.90667 34.4985 6.624C35.6945 5.49733 37.2805 4.934 39.2565 4.934ZM39.2565 7.82C38.2859 7.82 37.5059 8.21867 36.9165 9.016C36.3272 9.796 36.0325 10.8273 36.0325 12.11C36.0325 13.4967 36.3619 14.5887 37.0205 15.386C37.6099 16.062 38.3552 16.4 39.2565 16.4C40.2272 16.4 41.0072 16.01 41.5965 15.23C42.2032 14.4327 42.5065 13.3927 42.5065 12.11C42.5065 10.7407 42.1685 9.65733 41.4925 8.86C40.9032 8.16667 40.1579 7.82 39.2565 7.82ZM64.951 9.276H61.311C61.2937 8.72133 61.0944 8.33133 60.713 8.106C60.3317 7.86333 59.673 7.742 58.737 7.742C57.3677 7.742 56.683 8.14067 56.683 8.938C56.683 9.406 57.099 9.75267 57.931 9.978L62.455 11.252C64.2577 11.7547 65.159 12.8987 65.159 14.684C65.159 16.088 64.613 17.2233 63.521 18.09C62.4984 18.8873 61.025 19.286 59.101 19.286C56.7437 19.286 55.0537 18.9393 54.031 18.246C53.0257 17.5873 52.4884 16.5213 52.419 15.048H55.981C56.085 15.62 56.3277 16.0013 56.709 16.192C57.1077 16.3827 57.8357 16.478 58.893 16.478C60.6784 16.478 61.571 16.0533 61.571 15.204C61.571 14.7013 61.1724 14.3287 60.375 14.086L56.111 12.786C55.019 12.4567 54.2737 12.0753 53.875 11.642C53.355 11.1047 53.095 10.3767 53.095 9.458C53.095 7.95 53.667 6.78867 54.811 5.974C55.8164 5.28067 57.1337 4.934 58.763 4.934C60.739 4.934 62.299 5.376 63.443 6.26C64.431 7.04 64.9337 8.04533 64.951 9.276ZM71.3184 5.22V19H67.7304V5.22H71.3184ZM69.4984 0.488C69.9664 0.488 70.3564 0.652666 70.6684 0.982C70.9977 1.31133 71.1624 1.71 71.1624 2.178C71.1624 2.646 70.9977 3.04467 70.6684 3.374C70.3564 3.686 69.9664 3.842 69.4984 3.842C69.0304 3.842 68.6317 3.686 68.3024 3.374C67.9731 3.04467 67.8084 2.646 67.8084 2.178C67.8084 1.71 67.9731 1.31133 68.3024 0.982C68.6317 0.652666 69.0304 0.488 69.4984 0.488ZM81.3138 5.22V7.586H78.8958V15.256C78.8958 15.7587 78.9824 16.1053 79.1558 16.296C79.3464 16.4867 79.6844 16.582 80.1698 16.582C80.5684 16.582 81.0798 16.426 81.7038 16.114C81.7558 16.0793 81.7991 16.0533 81.8338 16.036L82.2498 18.48C81.1578 19.0173 80.0138 19.286 78.8178 19.286C76.4778 19.286 75.3078 18.2113 75.3078 16.062V7.586H73.5398V5.22H75.3078V2.932L78.8958 0.877999V5.22H81.3138ZM96.5492 13.046H87.2932C87.3452 14.1553 87.5185 14.944 87.8132 15.412C88.3158 16.1747 89.1045 16.556 90.1792 16.556C91.5138 16.556 92.4065 16.0013 92.8572 14.892H96.3932C95.9945 16.244 95.2145 17.3187 94.0532 18.116C92.9092 18.896 91.5658 19.286 90.0232 19.286C87.9258 19.286 86.3138 18.584 85.1872 17.18C84.1992 15.9493 83.7052 14.3287 83.7052 12.318C83.7052 9.874 84.3465 7.98467 85.6292 6.65C86.7558 5.506 88.2378 4.934 90.0752 4.934C91.4792 4.934 92.7098 5.28067 93.7672 5.974C94.8245 6.66733 95.5785 7.638 96.0292 8.886C96.3932 9.85667 96.5752 11.0267 96.5752 12.396C96.5752 12.5693 96.5665 12.786 96.5492 13.046ZM92.8312 10.68C92.6578 8.66933 91.7305 7.664 90.0492 7.664C88.4718 7.664 87.5705 8.66933 87.3452 10.68H92.8312ZM113.246 0.383999V11.928H115.586V14.632H113.246V17.57L111.66 19H110.152V14.632H102.846V12.344L110.204 0.383999H113.246ZM110.152 4.544L105.784 11.928H110.152V4.544Z" fill="white"/>
</svg>
