<svg width="23" height="22" viewBox="0 0 23 22" fill="none" xmlns="http://www.w3.org/2000/svg">
<path d="M16.568 14.1729C17.8792 12.3835 18.4664 10.1649 18.2123 7.96094C17.9582 5.75702 16.8813 3.73034 15.1973 2.28637C13.5133 0.842395 11.3462 0.0876168 9.12961 0.173037C6.91304 0.258458 4.81045 1.17778 3.2425 2.74707C1.67455 4.31637 0.756862 6.41991 0.67304 8.63685C0.589218 10.8538 1.34544 13.0206 2.79042 14.7039C4.23539 16.3871 6.26255 17.4626 8.46634 17.7152C10.6701 17.9678 12.888 17.3789 14.6763 16.0663H14.6749C14.7156 16.1204 14.7589 16.1719 14.8076 16.222L20.021 21.4361C20.2749 21.6902 20.6193 21.833 20.9785 21.8332C21.3378 21.8333 21.6823 21.6907 21.9364 21.4368C22.1905 21.1828 22.3333 20.8383 22.3334 20.4791C22.3335 20.1198 22.191 19.7752 21.9371 19.5211L16.7237 14.307C16.6753 14.258 16.6232 14.2127 16.568 14.1716V14.1729ZM16.9174 8.96699C16.9174 9.94516 16.7247 10.9138 16.3504 11.8175C15.9762 12.7212 15.4276 13.5423 14.736 14.234C14.0444 14.9257 13.2234 15.4743 12.3198 15.8487C11.4162 16.223 10.4478 16.4157 9.46972 16.4157C8.49168 16.4157 7.52322 16.223 6.61963 15.8487C5.71604 15.4743 4.89502 14.9257 4.20344 14.234C3.51186 13.5423 2.96328 12.7212 2.589 11.8175C2.21472 10.9138 2.02208 9.94516 2.02208 8.96699C2.02208 6.99147 2.80674 5.09687 4.20344 3.69997C5.60015 2.30307 7.49448 1.5183 9.46972 1.5183C11.445 1.5183 13.3393 2.30307 14.736 3.69997C16.1327 5.09687 16.9174 6.99147 16.9174 8.96699Z" fill="white"/>
</svg>
