<svg width="159" height="35" viewBox="0 0 159 35" fill="none" xmlns="http://www.w3.org/2000/svg">
<path d="M0.835 26V0.664999H5.425V22.085H17.935V26H0.835ZM29.5327 26.45C27.4327 26.45 25.6927 26.045 24.3127 25.235C22.9327 24.425 21.8977 23.315 21.2077 21.905C20.5177 20.465 20.1727 18.83 20.1727 17C20.1427 14.24 20.9077 11.975 22.4677 10.205C24.0577 8.405 26.4127 7.505 29.5327 7.505C32.5627 7.505 34.8577 8.375 36.4177 10.115C38.0077 11.855 38.8027 14.15 38.8027 17C38.8027 18.77 38.4727 20.375 37.8127 21.815C37.1527 23.255 36.1327 24.395 34.7527 25.235C33.3727 26.045 31.6327 26.45 29.5327 26.45ZM29.5327 22.58C30.8527 22.58 31.8577 22.295 32.5477 21.725C33.2677 21.155 33.7477 20.435 33.9877 19.565C34.2277 18.665 34.3477 17.765 34.3477 16.865C34.3477 15.935 34.2277 15.02 33.9877 14.12C33.7477 13.22 33.2677 12.485 32.5477 11.915C31.8577 11.345 30.8527 11.06 29.5327 11.06C28.1827 11.06 27.1477 11.36 26.4277 11.96C25.7377 12.53 25.2577 13.265 24.9877 14.165C24.7477 15.035 24.6277 15.935 24.6277 16.865C24.6277 17.765 24.7477 18.665 24.9877 19.565C25.2577 20.435 25.7377 21.155 26.4277 21.725C27.1477 22.295 28.1827 22.58 29.5327 22.58ZM47.2033 34.235V29.915H55.3033V22.715H55.2133C55.1833 22.775 55.0483 23 54.8083 23.39C54.5983 23.78 54.2533 24.215 53.7733 24.695C53.2933 25.175 52.6633 25.595 51.8833 25.955C51.1333 26.285 50.1883 26.45 49.0483 26.45C46.3183 26.45 44.3533 25.58 43.1533 23.84C41.9533 22.1 41.3533 19.835 41.3533 17.045C41.3533 14.135 41.9533 11.825 43.1533 10.115C44.3833 8.375 46.3483 7.505 49.0483 7.505C50.2483 7.505 51.2383 7.7 52.0183 8.09C52.7983 8.45 53.4133 8.885 53.8633 9.395C54.3133 9.905 54.6283 10.37 54.8083 10.79C55.0183 11.21 55.1383 11.465 55.1683 11.555H55.2583L55.3033 7.505H60.0283V27.575C60.0283 30.035 59.5333 31.76 58.5433 32.75C57.5833 33.74 56.0833 34.235 54.0433 34.235H47.2033ZM50.4883 22.58C52.1683 22.58 53.3833 22.07 54.1333 21.05C54.8833 20 55.2583 18.665 55.2583 17.045C55.2583 15.485 54.8983 14.195 54.1783 13.175C53.4583 12.125 52.2583 11.6 50.5783 11.6C49.3483 11.6 48.3883 11.87 47.6983 12.41C47.0083 12.92 46.5133 13.595 46.2133 14.435C45.9433 15.245 45.8083 16.115 45.8083 17.045C45.8083 17.975 45.9283 18.875 46.1683 19.745C46.4383 20.585 46.9033 21.275 47.5633 21.815C48.2533 22.325 49.2283 22.58 50.4883 22.58ZM72.1157 26.45C70.0157 26.45 68.2757 26.045 66.8957 25.235C65.5157 24.425 64.4807 23.315 63.7907 21.905C63.1007 20.465 62.7557 18.83 62.7557 17C62.7257 14.24 63.4907 11.975 65.0507 10.205C66.6407 8.405 68.9957 7.505 72.1157 7.505C75.1457 7.505 77.4407 8.375 79.0007 10.115C80.5907 11.855 81.3857 14.15 81.3857 17C81.3857 18.77 81.0557 20.375 80.3957 21.815C79.7357 23.255 78.7157 24.395 77.3357 25.235C75.9557 26.045 74.2157 26.45 72.1157 26.45ZM72.1157 22.58C73.4357 22.58 74.4407 22.295 75.1307 21.725C75.8507 21.155 76.3307 20.435 76.5707 19.565C76.8107 18.665 76.9307 17.765 76.9307 16.865C76.9307 15.935 76.8107 15.02 76.5707 14.12C76.3307 13.22 75.8507 12.485 75.1307 11.915C74.4407 11.345 73.4357 11.06 72.1157 11.06C70.7657 11.06 69.7307 11.36 69.0107 11.96C68.3207 12.53 67.8407 13.265 67.5707 14.165C67.3307 15.035 67.2107 15.935 67.2107 16.865C67.2107 17.765 67.3307 18.665 67.5707 19.565C67.8407 20.435 68.3207 21.155 69.0107 21.725C69.7307 22.295 70.7657 22.58 72.1157 22.58ZM105.166 26.495C103.786 26.495 102.421 26.33 101.071 26C99.7511 25.67 98.5511 25.16 97.4711 24.47C96.3911 23.78 95.5361 22.88 94.9061 21.77C94.2761 20.63 93.9461 19.265 93.9161 17.675H98.5511C98.5511 17.825 98.6111 18.155 98.7311 18.665C98.8511 19.145 99.1211 19.67 99.5411 20.24C99.9911 20.81 100.681 21.305 101.611 21.725C102.571 22.145 103.861 22.355 105.481 22.355C107.251 22.355 108.556 22.025 109.396 21.365C110.266 20.705 110.701 20 110.701 19.25C110.701 18.41 110.401 17.75 109.801 17.27C109.231 16.76 108.451 16.355 107.461 16.055C106.501 15.725 105.436 15.425 104.266 15.155C103.126 14.885 101.971 14.585 100.801 14.255C99.6611 13.895 98.6111 13.43 97.6511 12.86C96.7211 12.26 95.9861 11.495 95.4461 10.565C94.9061 9.635 94.6661 8.45 94.7261 7.01C94.8761 4.88 95.8961 3.215 97.7861 2.015C99.6761 0.814999 102.181 0.214999 105.301 0.214999C107.101 0.214999 108.766 0.545 110.296 1.205C111.856 1.835 113.101 2.795 114.031 4.085C114.991 5.345 115.471 6.965 115.471 8.945H111.016C111.016 8.015 110.806 7.265 110.386 6.695C109.966 6.095 109.426 5.645 108.766 5.345C108.136 5.015 107.461 4.805 106.741 4.715C106.021 4.595 105.376 4.535 104.806 4.535C103.306 4.535 102.061 4.79 101.071 5.3C100.111 5.81 99.6311 6.56 99.6311 7.55C99.6011 8.39 99.8861 9.065 100.486 9.575C101.086 10.085 101.881 10.49 102.871 10.79C103.861 11.09 104.941 11.36 106.111 11.6C107.281 11.84 108.451 12.14 109.621 12.5C110.791 12.83 111.856 13.28 112.816 13.85C113.776 14.39 114.526 15.14 115.066 16.1C115.606 17.03 115.831 18.245 115.741 19.745C115.621 21.875 114.586 23.54 112.636 24.74C110.686 25.91 108.196 26.495 105.166 26.495ZM128.012 26.45C125.882 26.45 124.142 26 122.792 25.1C121.472 24.17 120.482 23 119.822 21.59C119.192 20.15 118.862 18.635 118.832 17.045C118.802 15.185 119.147 13.535 119.867 12.095C120.617 10.625 121.667 9.485 123.017 8.675C124.397 7.835 126.017 7.415 127.877 7.415C129.527 7.415 130.997 7.775 132.287 8.495C133.607 9.215 134.657 10.235 135.437 11.555C136.217 12.845 136.622 14.375 136.652 16.145C136.652 16.205 136.652 16.37 136.652 16.64C136.652 16.91 136.652 17.135 136.652 17.315H123.197C123.197 19.025 123.617 20.345 124.457 21.275C125.297 22.175 126.452 22.625 127.922 22.625C129.062 22.625 130.007 22.34 130.757 21.77C131.537 21.2 132.002 20.45 132.152 19.52H136.607C136.397 21.47 135.557 23.12 134.087 24.47C132.617 25.79 130.592 26.45 128.012 26.45ZM123.332 15.245H132.062C132.032 15.035 131.957 14.705 131.837 14.255C131.747 13.805 131.552 13.34 131.252 12.86C130.982 12.38 130.562 11.975 129.992 11.645C129.422 11.315 128.687 11.15 127.787 11.15C126.587 11.15 125.672 11.405 125.042 11.915C124.442 12.395 124.007 12.965 123.737 13.625C123.497 14.255 123.362 14.795 123.332 15.245ZM148.888 26.45C146.788 26.45 145.048 26.045 143.668 25.235C142.288 24.425 141.253 23.315 140.563 21.905C139.873 20.465 139.528 18.83 139.528 17C139.498 14.24 140.263 11.975 141.823 10.205C143.413 8.405 145.768 7.505 148.888 7.505C151.918 7.505 154.213 8.375 155.773 10.115C157.363 11.855 158.158 14.15 158.158 17C158.158 18.77 157.828 20.375 157.168 21.815C156.508 23.255 155.488 24.395 154.108 25.235C152.728 26.045 150.988 26.45 148.888 26.45ZM148.888 22.58C150.208 22.58 151.213 22.295 151.903 21.725C152.623 21.155 153.103 20.435 153.343 19.565C153.583 18.665 153.703 17.765 153.703 16.865C153.703 15.935 153.583 15.02 153.343 14.12C153.103 13.22 152.623 12.485 151.903 11.915C151.213 11.345 150.208 11.06 148.888 11.06C147.538 11.06 146.503 11.36 145.783 11.96C145.093 12.53 144.613 13.265 144.343 14.165C144.103 15.035 143.983 15.935 143.983 16.865C143.983 17.765 144.103 18.665 144.343 19.565C144.613 20.435 145.093 21.155 145.783 21.725C146.503 22.295 147.538 22.58 148.888 22.58Z" fill="black"/>
</svg>
