<svg width="148" height="29" viewBox="0 0 148 29" fill="none" xmlns="http://www.w3.org/2000/svg">
<path d="M6.49625 16.364V11.636C6.49625 11.4973 6.50158 11.3453 6.51225 11.18C6.52292 11.0147 6.53892 10.8467 6.56025 10.676L2.38425 16.364H6.49625ZM9.48025 16.364V17.18C9.48025 17.2653 9.45358 17.3373 9.40025 17.396C9.35225 17.4547 9.27492 17.484 9.16825 17.484H7.74425V20.5H6.49625V17.484H1.40825C1.30158 17.484 1.20825 17.4547 1.12825 17.396C1.05358 17.332 1.00558 17.2547 0.98425 17.164L0.84025 16.436L6.41625 9.036H7.74425V16.364H9.48025ZM10.8255 19.62C10.8255 19.4813 10.8495 19.3507 10.8975 19.228C10.9508 19.1053 11.0202 18.9987 11.1055 18.908C11.1962 18.8173 11.3028 18.7453 11.4255 18.692C11.5482 18.6387 11.6788 18.612 11.8175 18.612C11.9562 18.612 12.0868 18.6387 12.2095 18.692C12.3322 18.7453 12.4388 18.8173 12.5295 18.908C12.6202 18.9987 12.6922 19.1053 12.7455 19.228C12.7988 19.3507 12.8255 19.4813 12.8255 19.62C12.8255 19.764 12.7988 19.8973 12.7455 20.02C12.6922 20.1373 12.6202 20.2413 12.5295 20.332C12.4388 20.4227 12.3322 20.492 12.2095 20.54C12.0868 20.5933 11.9562 20.62 11.8175 20.62C11.6788 20.62 11.5482 20.5933 11.4255 20.54C11.3028 20.492 11.1962 20.4227 11.1055 20.332C11.0202 20.2413 10.9508 20.1373 10.8975 20.02C10.8495 19.8973 10.8255 19.764 10.8255 19.62ZM21.6148 19.148C21.7694 19.148 21.8921 19.1933 21.9827 19.284C22.0734 19.3747 22.1188 19.492 22.1188 19.636V20.5H14.4708V20.012C14.4708 19.9107 14.4921 19.8067 14.5348 19.7C14.5774 19.5933 14.6441 19.4947 14.7348 19.404L18.4068 15.716C18.7108 15.4067 18.9881 15.1107 19.2388 14.828C19.4894 14.54 19.7028 14.252 19.8788 13.964C20.0548 13.676 20.1908 13.3853 20.2868 13.092C20.3828 12.7933 20.4308 12.476 20.4308 12.14C20.4308 11.804 20.3774 11.5107 20.2708 11.26C20.1641 11.004 20.0174 10.7933 19.8308 10.628C19.6494 10.4627 19.4334 10.34 19.1828 10.26C18.9321 10.1747 18.6628 10.132 18.3748 10.132C18.0814 10.132 17.8121 10.1747 17.5668 10.26C17.3214 10.3453 17.1028 10.4653 16.9108 10.62C16.7241 10.7693 16.5668 10.948 16.4388 11.156C16.3108 11.364 16.2201 11.5933 16.1668 11.844C16.1028 12.0307 16.0148 12.156 15.9028 12.22C15.7961 12.2787 15.6441 12.2947 15.4468 12.268L14.7028 12.14C14.7774 11.6173 14.9214 11.156 15.1348 10.756C15.3534 10.3507 15.6254 10.012 15.9508 9.74C16.2814 9.468 16.6574 9.26267 17.0788 9.124C17.5001 8.98 17.9561 8.908 18.4468 8.908C18.9321 8.908 19.3854 8.98 19.8068 9.124C20.2281 9.268 20.5934 9.47867 20.9028 9.756C21.2121 10.028 21.4548 10.3613 21.6308 10.756C21.8068 11.1507 21.8948 11.5987 21.8948 12.1C21.8948 12.5267 21.8308 12.924 21.7028 13.292C21.5748 13.6547 21.4014 14.0013 21.1828 14.332C20.9641 14.6627 20.7108 14.9853 20.4228 15.3C20.1401 15.6147 19.8388 15.932 19.5188 16.252L16.4948 19.34C16.7081 19.2813 16.9241 19.236 17.1428 19.204C17.3614 19.1667 17.5721 19.148 17.7748 19.148H21.6148Z" fill="#4F4F4F"/>
<path d="M38 4.5L40.2451 11.4098H47.5106L41.6327 15.6803L43.8779 22.5902L38 18.3197L32.1221 22.5902L34.3673 15.6803L28.4894 11.4098H35.7549L38 4.5Z" fill="#F9C02E"/>
<path d="M63 4.5L65.2451 11.4098H72.5106L66.6327 15.6803L68.8779 22.5902L63 18.3197L57.1221 22.5902L59.3673 15.6803L53.4894 11.4098H60.7549L63 4.5Z" fill="#F9C02E"/>
<path d="M88 4.5L90.2451 11.4098H97.5106L91.6327 15.6803L93.8779 22.5902L88 18.3197L82.1221 22.5902L84.3673 15.6803L78.4894 11.4098H85.7549L88 4.5Z" fill="#F9C02E"/>
<path d="M113 4.5L115.245 11.4098H122.511L116.633 15.6803L118.878 22.5902L113 18.3197L107.122 22.5902L109.367 15.6803L103.489 11.4098H110.755L113 4.5Z" fill="#F9C02E"/>
<path d="M138 4.5L140.245 11.4098H147.511L141.633 15.6803L143.878 22.5902L138 18.3197L132.122 22.5902L134.367 15.6803L128.489 11.4098H135.755L138 4.5Z" fill="#C4C4C4"/>
</svg>
