<svg width="23" height="22" viewBox="0 0 23 22" fill="none" xmlns="http://www.w3.org/2000/svg">
<path d="M16.568 14.1731C17.8792 12.3837 18.4664 10.165 18.2123 7.96112C17.9582 5.7572 16.8813 3.73053 15.1973 2.28655C13.5133 0.842579 11.3462 0.0877999 9.12961 0.17322C6.91304 0.258641 4.81045 1.17796 3.2425 2.74726C1.67455 4.31655 0.756862 6.42009 0.67304 8.63704C0.589218 10.854 1.34544 13.0208 2.79042 14.7041C4.23539 16.3873 6.26255 17.4628 8.46634 17.7154C10.6701 17.968 12.888 17.3791 14.6763 16.0664H14.6749C14.7156 16.1206 14.7589 16.1721 14.8076 16.2222L20.021 21.4363C20.2749 21.6904 20.6193 21.8332 20.9785 21.8334C21.3378 21.8335 21.6823 21.6909 21.9364 21.4369C22.1905 21.183 22.3333 20.8385 22.3334 20.4793C22.3335 20.12 22.191 19.7754 21.9371 19.5213L16.7237 14.3072C16.6753 14.2582 16.6232 14.2129 16.568 14.1718V14.1731ZM16.9174 8.96717C16.9174 9.94535 16.7247 10.9139 16.3504 11.8177C15.9762 12.7214 15.4276 13.5425 14.736 14.2342C14.0444 14.9259 13.2234 15.4745 12.3198 15.8489C11.4162 16.2232 10.4478 16.4159 9.46972 16.4159C8.49168 16.4159 7.52322 16.2232 6.61963 15.8489C5.71604 15.4745 4.89502 14.9259 4.20344 14.2342C3.51186 13.5425 2.96328 12.7214 2.589 11.8177C2.21472 10.9139 2.02208 9.94535 2.02208 8.96717C2.02208 6.99166 2.80674 5.09705 4.20344 3.70015C5.60015 2.30325 7.49448 1.51848 9.46972 1.51848C11.445 1.51848 13.3393 2.30325 14.736 3.70015C16.1327 5.09705 16.9174 6.99166 16.9174 8.96717Z" fill="#333333"/>
</svg>
