<svg width="18" height="19" viewBox="0 0 18 19" fill="none" xmlns="http://www.w3.org/2000/svg">
<path d="M8.99955 0.5C4.02863 0.5 0 4.52953 0 9.49955C0 13.312 2.37195 16.5713 5.72043 17.8829C5.64116 17.1712 5.57089 16.0758 5.75106 15.2993C5.91502 14.5966 6.80687 10.8256 6.80687 10.8256C6.80687 10.8256 6.53751 10.286 6.53751 9.48874C6.53751 8.23835 7.2627 7.30416 8.16626 7.30416C8.93469 7.30416 9.30494 7.88071 9.30494 8.57167C9.30494 9.3446 8.81307 10.4986 8.55993 11.5688C8.34823 12.4643 9.00946 13.1949 9.8923 13.1949C11.4913 13.1949 12.7219 11.5085 12.7219 9.07344C12.7219 6.9186 11.1733 5.41237 8.96261 5.41237C6.40148 5.41237 4.89795 7.33299 4.89795 9.31757C4.89795 10.0905 5.19614 10.9202 5.56819 11.3715C5.59981 11.4055 5.62213 11.4471 5.63302 11.4922C5.64391 11.5373 5.64299 11.5845 5.63035 11.6292C5.56188 11.9129 5.40964 12.5246 5.38081 12.6498C5.34117 12.8147 5.25019 12.8498 5.07902 12.7706C3.95566 12.2472 3.25299 10.604 3.25299 9.28334C3.25299 6.44475 5.31505 3.83767 9.19954 3.83767C12.3219 3.83767 14.7479 6.06188 14.7479 9.03561C14.7479 12.1382 12.7922 14.6326 10.0779 14.6326C9.16531 14.6326 8.30859 14.1597 8.01491 13.6002L7.45368 15.7389C7.25099 16.5208 6.70237 17.5009 6.33572 18.0991C7.19884 18.3656 8.09713 18.5007 9.00045 18.5C13.9705 18.5 18 14.4705 18 9.50045C18 4.53043 13.9696 0.5 8.99955 0.5Z" fill="white"/>
</svg>
